# xmcd
#
# Track frame offsets:
#	150
#	13699
#	30914
#	49030
#	71723
#	93275
#	110517
#	124028
#
# Disc length: 1886 seconds
#
# Revision: 1
# Processed by: cddbd v1.4PL0 Copyright (c) Steve Scherf et al.
# Submitted via: audiograbber 1.80
#
DISCID=5e075c08
DTITLE=Rene Solis and The Persuaders - E Ticket Ride
DYEAR=1900
DGENRE=
TTITLE0=E Ticket Ride
TTITLE1=Midnight In Memphis
TTITLE2=Million Miles Away
TTITLE3=Mama Told Me So
TTITLE4=Nothing's Working
TTITLE5=I Sho Do
TTITLE6=Big Fat Daddy's
TTITLE7=Mojo Boogie
EXTD=Captive Records\nwww.nitecry.com
EXTT0=
EXTT1=
EXTT2=
EXTT3=
EXTT4=
EXTT5=
EXTT6=
EXTT7=
PLAYORDER=
